<svg xmlns="http://www.w3.org/2000/svg" viewBox="0 0 200 200" width="200" height="200"><defs><linearGradient id="ga5" x1="0" y1="0" x2="1" y2="1"><stop offset="0" stop-color="#f472b6"/><stop offset="1" stop-color="#a78bfa"/></linearGradient></defs><rect width="200" height="200" fill="url(#ga5)"/><circle cx="100" cy="100" r="92" fill="#fff" opacity=".08"/><path d="M28 200 C 32 150, 70 132, 100 132 C 130 132, 168 150, 172 200Z" fill="#0a1836"/><path d="M84 132 L100 158 L116 132Z" fill="#fff" opacity=".9"/><rect x="88" y="112" width="24" height="24" rx="8" fill="#f1c9a5"/><ellipse cx="100" cy="92" rx="34" ry="38" fill="#f1c9a5"/><path d="M58 100 C 50 36, 150 36, 142 100 L 142 128 C 130 96, 70 96, 58 128Z" fill="#1a1a1a"/><circle cx="88" cy="94" r="3" fill="#0a1430"/><circle cx="112" cy="94" r="3" fill="#0a1430"/><path d="M90 108 q10 8 20 0" fill="none" stroke="#0a1430" stroke-width="3" stroke-linecap="round"/></svg>